HIERARCHY
ROOT Hips
{
	OFFSET 0.00000 0.00000 0.00000
	CHANNELS 6 Xposition Yposition Zposition Zrotation Yrotation Xrotation 
	JOINT LHipJoint
	{
		OFFSET 0 0 0
		CHANNELS 3 Zrotation Yrotation Xrotation
		JOINT LeftUpLeg
		{
			OFFSET 1.36337 -1.57426 1.11036
			CHANNELS 3 Zrotation Yrotation Xrotation
			JOINT LeftLeg
			{
				OFFSET 2.38468 -6.55187 0.00000
				CHANNELS 3 Zrotation Yrotation Xrotation
				JOINT LeftFoot
				{
					OFFSET 2.37166 -6.51609 0.00000
					CHANNELS 3 Zrotation Yrotation Xrotation
					JOINT LeftToeBase
					{
						OFFSET 0.29078 -0.79891 2.01393
						CHANNELS 3 Zrotation Yrotation Xrotation
						End Site
						{
							OFFSET 0.00000 -0.00000 1.07924
						}
					}
				}
			}
		}
	}
	JOINT RHipJoint
	{
		OFFSET 0 0 0
		CHANNELS 3 Zrotation Yrotation Xrotation
		JOINT RightUpLeg
		{
			OFFSET -1.36349 -1.57426 1.11036
			CHANNELS 3 Zrotation Yrotation Xrotation
			JOINT RightLeg
			{
				OFFSET -2.29562 -6.30717 0.00000
				CHANNELS 3 Zrotation Yrotation Xrotation
				JOINT RightFoot
				{
					OFFSET -2.40985 -6.62100 0.00000
					CHANNELS 3 Zrotation Yrotation Xrotation
					JOINT RightToeBase
					{
						OFFSET -0.23197 -0.63733 1.92232
						CHANNELS 3 Zrotation Yrotation Xrotation
						End Site
						{
							OFFSET -0.00000 -0.00000 1.01562
						}
					}
				}
			}
		}
	}
	JOINT LowerBack
	{
		OFFSET 0 0 0
		CHANNELS 3 Zrotation Yrotation Xrotation
		JOINT Spine
		{
			OFFSET -0.08565 2.03602 -0.24562
			CHANNELS 3 Zrotation Yrotation Xrotation
			JOINT Spine1
			{
				OFFSET -0.00036 2.05693 0.00216
				CHANNELS 3 Zrotation Yrotation Xrotation
				JOINT Neck
				{
					OFFSET 0 0 0
					CHANNELS 3 Zrotation Yrotation Xrotation
					JOINT Neck1
					{
						OFFSET -0.03664 1.69515 0.31789
						CHANNELS 3 Zrotation Yrotation Xrotation
						JOINT Head
						{
							OFFSET 0.00932 1.70181 -0.46013
							CHANNELS 3 Zrotation Yrotation Xrotation
							End Site
							{
								OFFSET 0.01243 1.77620 -0.19377
							}
						}
					}
				}
				JOINT LeftShoulder
				{
					OFFSET 0 0 0
					CHANNELS 3 Zrotation Yrotation Xrotation
					JOINT LeftArm
					{
						OFFSET 3.74344 0.81315 -0.36647
						CHANNELS 3 Zrotation Yrotation Xrotation
						JOINT LeftForeArm
						{
							OFFSET 4.97185 -0.00000 -0.00000
							CHANNELS 3 Zrotation Yrotation Xrotation
							JOINT LeftHand
							{
								OFFSET 3.35811 -0.00000 0.00000
								CHANNELS 3 Zrotation Yrotation Xrotation
								JOINT LeftFingerBase
								{
									OFFSET 0 0 0
									CHANNELS 3 Zrotation Yrotation Xrotation
									JOINT LeftHandIndex1
									{
										OFFSET 0.62278 -0.00000 0.00000
										CHANNELS 3 Zrotation Yrotation Xrotation
										End Site
										{
											OFFSET 0.50210 -0.00000 0.00000
										}
									}
								}
								JOINT LThumb
								{
									OFFSET 0 0 0
									CHANNELS 3 Zrotation Yrotation Xrotation
									End Site
									{
										OFFSET 0.50976 -0.00000 0.50976
									}
								}
							}
						}
					}
				}
				JOINT RightShoulder
				{
					OFFSET 0 0 0
					CHANNELS 3 Zrotation Yrotation Xrotation
					JOINT RightArm
					{
						OFFSET -3.75385 0.50666 -0.06525
						CHANNELS 3 Zrotation Yrotation Xrotation
						JOINT RightForeArm
						{
							OFFSET -4.96493 -0.00000 -0.00000
							CHANNELS 3 Zrotation Yrotation Xrotation
							JOINT RightHand
							{
								OFFSET -3.34929 -0.00000 0.00000
								CHANNELS 3 Zrotation Yrotation Xrotation
								JOINT RightFingerBase
								{
									OFFSET 0 0 0
									CHANNELS 3 Zrotation Yrotation Xrotation
									JOINT RightHandIndex1
									{
										OFFSET -0.63804 -0.00000 0.00000
										CHANNELS 3 Zrotation Yrotation Xrotation
										End Site
										{
											OFFSET -0.51441 -0.00000 0.00000
										}
									}
								}
								JOINT RThumb
								{
									OFFSET 0 0 0
									CHANNELS 3 Zrotation Yrotation Xrotation
									End Site
									{
										OFFSET -0.52226 -0.00000 0.52226
									}
								}
							}
						}
					}
				}
			}
		}
	}
}
MOTION
Frames: 15
Frame Time: 0.0740741
0.00 0.00 0.00 0 0 0 0 0 0 -21 0 0 0 0 0 0 0 0 0 0 0 0 0 0 21 0 0 0 0 0 0 0 0 0 0 0 0 0 0 0 0 0 0 0 0 0 0 -16 0 0 21 0 0 11 0 0 0 -8 0 0 0 0 0 0 0 0 0 0 0 0 0 0 0 0 0 0 0 0 8 0 0 0 0 0 0 0 0 0 0 0 0 0 0 0 0 0
0.00 0.00 0.00 172.7940 51.7153 -175.2580 0.0000 0.0000 0.0000 -14.3046 -9.9445 -26.8197 1.9230 8.7039 24.8732 -0.0213 5.5942 -7.3131 0.5935 -4.9322 -13.7152 0.0000 0.0000 0.0000 8.5230 -10.4183 -11.5273 -1.1752 -6.8808 19.3628 -0.5041 -17.1442 -28.3692 -0.0000 -0.0342 0.0940 0.6016 7.8598 -4.7161 0.6461 10.6849 6.8865 1.7780 5.2832 9.9278 16.8464 19.8276 -7.6435 -20.7315 29.5872 12.2556 -4.8632 13.6922 10.9316 0.0000 0.0000 0.0000 -62.7888 2.9594 21.3405 42.3810 -49.4189 -20.2294 -0.0000 -0.0000 20.3495 42.3716 -13.1799 -11.7496 -7.1250 0.0000 -0.0000 10.0527 12.5918 -7.7423 0.0000 0.0000 0.0000 86.7881 16.0600 25.0471 -15.8485 25.3148 -3.5809 0.0000 -0.0000 -13.1248 -6.3050 -35.8024 3.6982 7.1250 -0.0000 -0.0000 33.2121 -62.8668 -15.2763
0.00 0.00 0.00 188.1930 69.0145 -155.2450 0.0000 0.0000 0.0000 -1.3694 -13.5026 -18.5548 0.7199 5.4219 15.1159 -1.9234 26.3423 -22.8283 0.5789 -4.8722 -13.5444 0.0000 0.0000 0.0000 17.6280 -0.3761 -13.9327 -0.5131 -4.5912 12.7460 -0.4348 -11.2284 -21.1199 -0.0113 -0.6865 1.8867 -3.6487 3.7264 -17.7053 -0.1628 5.7959 1.6236 3.4430 2.5134 11.3978 14.6246 16.4516 -8.8212 -14.4757 25.3404 20.8798 -3.4789 11.7023 12.0957 0.0000 -0.0000 0.0000 -84.1926 2.3518 22.5044 17.6603 -27.7200 -4.3901 -0.0000 0.0000 -8.2801 33.1977 -7.4904 -4.8754 -7.1250 0.0000 -0.0000 4.6160 21.0626 -2.6572 0.0000 -0.0000 0.0000 90.1402 8.5185 29.6863 -17.1151 27.0093 -4.1395 0.0000 -0.0000 -10.0332 -14.5270 -31.8995 7.7969 7.1250 -0.0000 -0.0000 20.6794 -61.5309 -8.5238
0.00 0.00 0.00 114.2910 85.6316 -225.7430 0.0000 0.0000 0.0000 -16.6737 -4.7473 -24.2295 1.1777 6.8877 19.3831 -0.2354 23.8225 -32.0621 0.1558 2.5433 7.0097 0.0000 0.0000 0.0000 2.8827 4.8973 -27.5248 -1.2311 -7.0366 19.8237 -0.0281 -8.8053 -13.0600 -0.0609 1.5922 -4.3800 -8.9596 0.9509 -8.4203 -0.6277 2.3054 1.8545 4.6877 0.8096 6.3902 -4.5721 -0.0984 -20.9760 -0.5049 1.8260 24.2400 0.8838 0.4191 11.3438 0.0000 -0.0000 0.0000 -83.4931 2.9566 50.6222 27.0788 -38.2542 -9.5479 -0.0000 0.0000 -15.1044 24.8315 -9.0753 -4.1745 -7.1250 0.0000 -0.0000 -1.5006 19.9993 0.8972 0.0000 -0.0000 0.0000 84.6483 3.6754 32.1714 -21.1198 31.9680 -6.1133 0.0000 -0.0000 -16.5691 -12.0234 -28.6702 5.8344 7.1250 -0.0000 -0.0000 20.8235 -57.9521 -6.7936
0.00 0.00 0.00 67.6247 77.9687 -273.6150 0.0000 0.0000 0.0000 -24.4933 4.6186 -30.7518 1.9813 8.8270 25.2556 -0.8694 21.8141 -23.7277 0.2598 -3.2794 -9.0575 0.0000 0.0000 0.0000 -3.5655 5.0877 -39.2281 -4.0378 -12.2105 36.4808 -0.7858 -2.3937 -17.7764 -0.0160 0.8175 -2.2468 -10.9017 0.4825 4.1610 -1.8057 0.4576 3.3685 4.2101 0.1047 1.1323 -2.4292 2.1318 -26.6779 -4.7466 5.9643 26.8624 -0.3125 1.7145 13.6816 0.0000 -0.0000 0.0000 -77.1067 0.6587 43.5450 30.8489 -41.6100 -11.9694 -0.0000 0.0000 -15.4466 22.1674 -6.4928 -2.6378 -7.1250 0.0000 -0.0000 -3.3716 22.9769 1.7909 0.0000 -0.0000 0.0000 84.7605 -1.5771 28.8801 -20.8092 31.6050 -5.9497 0.0000 -0.0000 -16.3940 -15.0953 -31.3664 7.9920 7.1250 -0.0000 -0.0000 19.6260 -61.1739 -7.9036
0.00 0.00 0.00 70.3356 78.0117 -272.3990 0.0000 0.0000 0.0000 -20.2628 6.5628 -37.5077 5.0113 13.3965 40.8716 0.1891 16.3610 -24.9181 0.1203 -2.2364 -6.1594 0.0000 0.0000 0.0000 -1.1478 4.3593 -43.3220 -6.4728 -14.8713 46.8508 -1.4499 1.6915 -22.2835 -0.0093 0.6210 -1.7066 -8.2089 0.1184 8.7538 -1.4161 -0.3059 4.4277 3.1624 -0.1871 -0.2358 -1.5724 3.0130 -26.3023 -6.5729 7.4282 26.3603 -0.8918 2.2066 13.5634 0.0000 0.0000 0.0000 -77.5322 1.7348 36.9912 35.6839 -45.2944 -15.2974 -0.0000 0.0000 -20.3771 28.1663 -8.1785 -4.3558 -7.1250 0.0000 -0.0000 0.9417 20.7212 -0.5476 0.0000 0.0000 0.0000 83.0723 -3.0805 30.4648 -20.3651 31.0797 -5.7186 0.0000 -0.0000 -16.3606 -13.3989 -31.1447 7.0237 7.1250 -0.0000 -0.0000 21.2577 -60.5591 -8.2818
0.00 0.00 0.00 52.6534 82.2465 -290.9500 0.0000 0.0000 0.0000 -12.9084 0.6461 -56.9027 7.7736 15.9502 51.7429 0.2447 4.9579 -12.4919 0.1954 -2.8466 -7.8521 0.0000 0.0000 0.0000 -0.6147 -1.0476 -38.5273 -9.6422 -17.2037 58.2858 -2.5691 9.8642 -28.8556 -0.3985 4.0531 -11.2262 -7.7871 2.5672 18.6852 -1.8904 2.4149 7.4440 1.8861 1.3051 -2.6046 -2.0552 2.1422 -29.4257 -5.3234 5.4029 20.3314 -0.6808 1.5411 11.5998 0.0000 -0.0000 0.0000 -64.4038 -0.5295 65.4904 63.7751 -57.2347 -37.4994 -0.0000 -0.0000 1.6370 29.7471 -23.8640 -13.0182 -7.1250 0.0000 -0.0000 0.2871 2.9797 -0.2718 0.0000 -0.0000 0.0000 74.9144 -1.5311 51.3539 -41.7098 49.0509 -19.7211 0.0000 -0.0000 -11.0253 -11.5571 -28.2015 5.5198 7.1250 -0.0000 -0.0000 20.9751 -57.4166 -6.5720
0.00 0.00 0.00 42.1422 82.2009 -302.8710 0.0000 0.0000 0.0000 -14.2352 0.6939 -54.9857 9.7628 17.2743 58.6926 0.9247 2.3562 -19.1608 0.1383 -2.3965 -6.6029 0.0000 0.0000 0.0000 -4.7195 -4.1446 -46.6403 -14.9443 -19.3758 75.0690 -0.4221 5.8194 -11.6531 -0.7047 5.3656 -14.9543 -11.1597 3.4962 19.4490 -2.1016 3.0216 7.8623 3.3831 1.5708 -2.6693 -2.1454 1.5607 -29.4425 -3.4689 4.0796 20.2531 -0.2166 1.1872 11.4771 -0.0000 -0.0000 0.0000 -53.7483 -11.6677 75.6576 63.0888 -57.0784 -36.9228 -0.0000 0.0000 -0.6203 24.0879 -22.5050 -9.7105 -7.1250 0.0000 -0.0000 -3.0271 5.5983 2.7212 -0.0000 -0.0000 0.0000 73.0007 -0.2687 51.9902 -44.7239 50.6325 -22.0251 0.0000 -0.0000 -8.9429 -17.3311 -30.8936 9.1029 7.1250 -0.0000 -0.0000 16.8261 -61.2737 -6.7764
0.00 0.00 0.00 42.2331 82.5110 -302.3420 0.0000 0.0000 0.0000 -16.4595 1.9004 -50.8789 10.5811 17.7239 61.4136 1.7420 -0.4944 -24.8286 0.2562 -3.2567 -8.9942 0.0000 0.0000 0.0000 -5.2289 1.3071 -56.0602 -8.6101 -16.5501 54.7316 -0.5076 5.4513 -12.7044 -0.9851 6.3176 -17.7088 -12.3465 2.1142 21.6439 -2.0599 0.5459 6.7275 4.6141 0.4732 -4.6758 1.3281 6.7012 -27.6899 -7.4630 10.7660 19.3656 -1.0518 3.9988 11.3644 -0.0000 -0.0000 0.0000 -47.2109 -17.6594 82.6345 62.5443 -56.9507 -36.4660 -0.0000 0.0000 -0.9001 8.3077 -18.1086 -2.5986 -7.1250 0.0000 -0.0000 -12.9178 12.0340 10.2099 -0.0000 -0.0000 0.0000 71.3700 -2.1891 55.1721 -59.8012 56.2567 -34.1758 0.0000 -0.0000 -8.0343 -18.9587 -29.4378 9.5831 7.1250 -0.0000 -0.0000 14.0109 -60.2576 -5.2757
0.00 0.00 0.00 149.7520 65.1429 -191.0720 0.0000 0.0000 0.0000 -10.4891 -11.6510 -59.3540 9.5424 17.1444 57.9476 0.3285 -4.3564 -10.2078 0.7657 -5.5879 -15.5932 0.0000 0.0000 0.0000 -4.3979 -14.7239 -54.6820 -14.6812 -19.3078 74.2745 -2.9461 0.8024 -32.3252 -0.6904 5.3121 -14.8009 -2.6363 6.4983 24.5132 -6.5448 8.4344 7.7338 -8.0162 4.6537 -4.2254 14.2829 22.4244 -7.7471 -28.9954 35.3982 9.1441 -5.4260 15.9399 12.5726 -0.0000 0.0000 0.0000 -64.2417 -10.2185 69.6938 85.9776 -59.9388 -56.5172 -0.0000 -0.0000 9.4808 28.9687 -20.5855 -11.0147 -7.1250 0.0000 -0.0000 0.2732 6.7462 -0.2392 -0.0000 0.0000 0.0000 72.5056 -12.9416 52.9740 -53.7451 54.3987 -29.1930 0.0000 -0.0000 -8.3244 -30.0676 -32.6898 17.3630 7.1250 -0.0000 -0.0000 2.7866 -66.5177 -1.4459
0.00 0.00 0.00 149.7370 61.5454 -189.5800 0.0000 0.0000 0.0000 -11.6318 -15.2108 -60.6165 10.0001 17.4099 59.4887 0.3854 -5.4044 -11.1154 0.7303 -5.4600 -15.2253 0.0000 0.0000 0.0000 -5.9417 -18.4271 -55.0714 -15.1169 -19.4184 75.5885 -2.9303 0.2593 -32.3942 -0.9632 6.2491 -17.5088 -3.0617 7.5450 24.4448 -6.7447 9.7355 7.6477 -8.3440 5.3184 -4.1563 14.6146 22.1962 -7.2762 -29.8666 35.7294 9.2995 -5.6687 16.1504 12.9451 -0.0000 0.0000 0.0000 -68.1264 1.0954 58.0814 106.6458 -58.9267 -74.3638 -0.0000 -0.0000 19.5284 39.1236 -24.2664 -18.4835 -7.1250 0.0000 -0.0000 5.8287 -0.0436 -5.8636 -0.0000 0.0000 0.0000 72.6579 -16.4740 51.8854 -52.2569 53.8661 -27.9869 0.0000 -0.0000 -8.4093 -29.7285 -32.0047 16.8385 7.1250 -0.0000 -0.0000 2.8185 -65.7020 -1.4096
0.00 0.00 0.00 149.4770 57.0474 -185.5580 0.0000 0.0000 0.0000 -11.6543 -21.2744 -65.8511 11.0435 17.9563 62.9229 0.5110 -5.8241 -12.7718 0.6925 -5.3198 -14.8229 0.0000 0.0000 0.0000 -8.1784 -23.8820 -58.8702 -16.2601 -19.6613 79.0057 -2.8227 1.2719 -31.4969 -1.1798 6.8936 -19.4006 -2.7571 9.6414 22.3786 -7.0766 12.6615 7.4302 -9.1984 6.8164 -2.8826 13.1253 21.5605 -8.2252 -28.8809 35.6496 11.0282 -5.1648 16.0104 13.2151 0.0000 0.0000 0.0000 -75.6642 14.8774 15.9815 121.4028 -55.9244 -86.8235 -0.0000 -0.0000 13.2031 55.4849 -20.8126 -27.3250 -7.1250 0.0000 -0.0000 16.0216 -2.7317 -17.4505 0.0000 0.0000 0.0000 73.0858 -22.1965 49.7852 -49.5089 52.7955 -25.7825 0.0000 -0.0000 -8.9299 -35.6044 -29.2267 19.2707 7.1250 -0.0000 -0.0000 -6.2850 -64.4084 2.9592
0.00 0.00 0.00 150.0370 55.5971 -184.5270 0.0000 0.0000 0.0000 -11.8837 -22.0695 -66.3098 11.1820 18.0230 63.3712 0.4855 -6.6314 -12.5534 0.5596 -4.7917 -13.3155 0.0000 0.0000 0.0000 -8.3315 -25.0539 -58.5620 -16.3918 -19.6849 79.3968 -2.9007 1.0643 -31.9968 -1.3859 7.4487 -21.0517 -2.4280 9.9493 22.5119 -6.9744 13.1542 7.5328 -9.3772 7.0798 -2.7228 13.2293 21.1552 -8.3605 -29.2022 35.5882 11.5679 -5.2887 15.9580 13.5684 0.0000 0.0000 0.0000 -73.6212 13.9164 6.5440 108.1821 -58.7133 -75.6781 -0.0000 -0.0000 7.5029 58.3685 -19.0098 -27.8705 -7.1250 0.0000 -0.0000 18.1018 -1.9051 -19.6903 0.0000 0.0000 0.0000 73.6023 -22.4331 49.5516 -47.7033 52.0261 -24.3516 0.0000 -0.0000 -9.0583 -35.9934 -29.1694 19.4953 7.1250 -0.0000 -0.0000 -6.8358 -64.4576 3.2275
0.00 0.00 0.00 150.6140 54.1834 -183.5960 0.0000 0.0000 0.0000 -12.0477 -22.7521 -66.6171 11.2655 18.0626 63.6407 0.4439 -7.4897 -12.1993 0.5249 -4.6431 -12.8933 0.0000 0.0000 0.0000 -8.4222 -26.0310 -58.2481 -16.5382 -19.7102 79.8311 -2.9489 0.7534 -32.3543 -1.3571 7.3741 -20.8285 -2.0874 9.8961 22.9217 -6.9041 13.1510 7.5628 -9.5610 7.0859 -2.8357 13.2283 20.8428 -8.3545 -29.6649 35.5073 11.6403 -5.4667 15.9358 13.7211 0.0000 -0.0000 0.0000 -69.9239 11.2579 0.1483 82.4290 -59.7823 -53.4481 -0.0000 -0.0000 6.3139 58.4059 -19.9210 -28.9850 -7.1250 0.0000 -0.0000 17.8632 -3.2493 -19.8129 0.0000 -0.0000 0.0000 71.8977 -22.6550 51.5992 -47.8654 52.0975 -24.4795 0.0000 -0.0000 -11.3488 -37.6969 -28.9264 20.4954 7.1250 -0.0000 -0.0000 -9.2756 -64.6840 4.4365
0.00 0.00 0.00 152.9680 50.3580 -181.5800 0.0000 0.0000 0.0000 -12.2577 -24.0096 -65.7674 11.6228 18.2266 64.7880 0.3929 -9.3972 -12.1018 0.4573 -4.3381 -12.0298 0.0000 0.0000 0.0000 -8.1243 -28.0620 -54.6614 -16.8056 -19.7536 80.6232 -3.1365 -0.0429 -33.6218 -1.9248 8.7076 -24.8850 -2.5377 9.1125 25.2425 -7.0963 12.0703 7.8803 -9.7346 6.5963 -3.7940 12.9585 21.1156 -9.7407 -27.9668 35.0108 12.1705 -4.9201 15.4971 13.5231 0.0000 -0.0000 0.0000 -53.5211 -3.4785 -19.4171 20.1968 -30.8788 -5.6320 -0.0000 -0.0000 12.6169 54.8159 -17.4423 -23.0336 -7.1250 0.0000 -0.0000 16.5772 2.3805 -16.5931 0.0000 -0.0000 0.0000 70.2672 -19.8017 55.3373 -44.9879 50.7626 -22.2294 0.0000 -0.0000 -13.2066 -35.7099 -24.1378 16.3810 7.1250 -0.0000 -0.0000 -7.4002 -58.7203 2.4909
